<mxfile host="drawio-plugin" modified="2023-03-02T10:17:29.332Z" agent="5.0 (Windows NT 6.1; Win64; x64) AppleWebKit/537.36 (KHTML, like Gecko) Chrome/104.0.5112.102 Safari/537.36" version="20.5.3" etag="fSr_lkZMShmNHMudJyEa" type="embed"><diagram id="kDkwM4_t6CrOr6_Z5UCp" name="Page-1"><mxGraphModel dx="641" dy="652" grid="1" gridSize="10" guides="1" tooltips="1" connect="1" arrows="1" fold="1" page="1" pageScale="1" pageWidth="850" pageHeight="1100" math="0" shadow="0"><root><mxCell id="0"/><mxCell id="1" parent="0"/><mxCell id="4" value="" style="edgeStyle=orthogonalEdgeStyle;rounded=0;orthogonalLoop=1;jettySize=auto;html=1;fontColor=#000000;" edge="1" parent="1" source="2" target="3"><mxGeometry relative="1" as="geometry"/></mxCell><mxCell id="2" value="&lt;h3&gt;Main&lt;/h3&gt;" style="rounded=0;whiteSpace=wrap;html=1;" vertex="1" parent="1"><mxGeometry x="52.5" y="40" width="90" height="40" as="geometry"/></mxCell><mxCell id="18" style="edgeStyle=orthogonalEdgeStyle;rounded=0;orthogonalLoop=1;jettySize=auto;html=1;entryX=0.5;entryY=0;entryDx=0;entryDy=0;fontColor=#000000;" edge="1" parent="1" source="3" target="6"><mxGeometry relative="1" as="geometry"/></mxCell><mxCell id="19" style="edgeStyle=orthogonalEdgeStyle;rounded=0;orthogonalLoop=1;jettySize=auto;html=1;entryX=0;entryY=0.5;entryDx=0;entryDy=0;fontColor=#000000;exitX=0.993;exitY=0.163;exitDx=0;exitDy=0;exitPerimeter=0;" edge="1" parent="1" source="3" target="15"><mxGeometry relative="1" as="geometry"/></mxCell><mxCell id="3" value="&lt;h3&gt;Terminal Reader&lt;/h3&gt;Scaner&lt;br&gt;public void endLess()" style="rounded=0;whiteSpace=wrap;html=1;" vertex="1" parent="1"><mxGeometry x="25" y="120" width="145" height="80" as="geometry"/></mxCell><mxCell id="5" value="&lt;h3&gt;Interface CommandParser&lt;/h3&gt;Command&amp;nbsp; parseComand(String)" style="rounded=0;whiteSpace=wrap;html=1;fontColor=#000000;" vertex="1" parent="1"><mxGeometry x="450" y="130" width="200" height="60" as="geometry"/></mxCell><mxCell id="21" style="edgeStyle=orthogonalEdgeStyle;rounded=0;orthogonalLoop=1;jettySize=auto;html=1;entryX=0.5;entryY=0;entryDx=0;entryDy=0;fontColor=#000000;" edge="1" parent="1" source="6" target="10"><mxGeometry relative="1" as="geometry"/></mxCell><mxCell id="6" value="&lt;h3&gt;CommandExecutableFactory&lt;/h3&gt;public CommandExecutable create (Command)" style="rounded=0;whiteSpace=wrap;html=1;fontColor=#000000;" vertex="1" parent="1"><mxGeometry x="25" y="250" width="275" height="60" as="geometry"/></mxCell><mxCell id="9" value="&lt;h3&gt;Interface CommandExecutable&lt;/h3&gt;viod execute()" style="rounded=0;whiteSpace=wrap;html=1;fontColor=#000000;" vertex="1" parent="1"><mxGeometry x="37.5" y="480" width="250" height="60" as="geometry"/></mxCell><mxCell id="12" style="edgeStyle=orthogonalEdgeStyle;rounded=0;orthogonalLoop=1;jettySize=auto;html=1;entryX=0.5;entryY=0;entryDx=0;entryDy=0;fontColor=#000000;" edge="1" parent="1" source="10" target="9"><mxGeometry relative="1" as="geometry"/></mxCell><mxCell id="23" style="edgeStyle=orthogonalEdgeStyle;rounded=0;orthogonalLoop=1;jettySize=auto;html=1;entryX=0;entryY=0.5;entryDx=0;entryDy=0;fontColor=#000000;" edge="1" parent="1" source="10" target="22"><mxGeometry relative="1" as="geometry"/></mxCell><mxCell id="10" value="&lt;h3&gt;CreateLionExecutable&lt;/h3&gt;&lt;div&gt;&lt;h3&gt;DeleteLionExecutable&lt;/h3&gt;&lt;/div&gt;&lt;div&gt;...&lt;/div&gt;@ execute" style="rounded=0;whiteSpace=wrap;html=1;fontColor=#000000;" vertex="1" parent="1"><mxGeometry x="57.5" y="340" width="210" height="110" as="geometry"/></mxCell><mxCell id="16" style="edgeStyle=orthogonalEdgeStyle;rounded=0;orthogonalLoop=1;jettySize=auto;html=1;entryX=0;entryY=0.5;entryDx=0;entryDy=0;fontColor=#000000;" edge="1" parent="1" source="14" target="5"><mxGeometry relative="1" as="geometry"/></mxCell><mxCell id="14" value="&lt;h3&gt;Command&lt;/h3&gt;action&lt;br&gt;animal&lt;br&gt;parameterAnimal" style="rounded=0;whiteSpace=wrap;html=1;strokeColor=default;fontColor=#000000;fillColor=none;" vertex="1" parent="1"><mxGeometry x="310" y="115" width="110" height="90" as="geometry"/></mxCell><mxCell id="15" value="&lt;h3&gt;PrintMenu&lt;/h3&gt;" style="rounded=0;whiteSpace=wrap;html=1;strokeColor=default;fontColor=#000000;fillColor=none;" vertex="1" parent="1"><mxGeometry x="260" y="20" width="120" height="60" as="geometry"/></mxCell><mxCell id="22" value="&lt;h3&gt;Zoo&lt;/h3&gt;" style="rounded=0;whiteSpace=wrap;html=1;strokeColor=default;fontColor=#000000;fillColor=none;" vertex="1" parent="1"><mxGeometry x="305" y="365" width="120" height="60" as="geometry"/></mxCell><mxCell id="24" value="&lt;h3&gt;CheckInput&lt;/h3&gt;boolen&amp;nbsp; isCreateWolf()&lt;br&gt;...&lt;br&gt;boolen&amp;nbsp; isCreateSnake()" style="rounded=0;whiteSpace=wrap;html=1;strokeColor=default;fontColor=#000000;fillColor=none;" vertex="1" parent="1"><mxGeometry x="450" y="230" width="160" height="90" as="geometry"/></mxCell><mxCell id="32" value="" style="endArrow=classic;html=1;rounded=0;fontColor=#000000;entryX=0;entryY=0.5;entryDx=0;entryDy=0;exitX=0.5;exitY=1;exitDx=0;exitDy=0;" edge="1" parent="1" source="14" target="24"><mxGeometry width="50" height="50" relative="1" as="geometry"><mxPoint x="310" y="240" as="sourcePoint"/><mxPoint x="360" y="190" as="targetPoint"/><Array as="points"><mxPoint x="365" y="275"/></Array></mxGeometry></mxCell><mxCell id="33" value="" style="endArrow=classic;startArrow=classic;html=1;rounded=0;fontColor=#000000;entryX=0;entryY=0.5;entryDx=0;entryDy=0;exitX=1;exitY=0.5;exitDx=0;exitDy=0;" edge="1" parent="1" source="3" target="14"><mxGeometry width="50" height="50" relative="1" as="geometry"><mxPoint x="310" y="230" as="sourcePoint"/><mxPoint x="360" y="180" as="targetPoint"/></mxGeometry></mxCell></root></mxGraphModel></diagram></mxfile>